<?xml version="1.0" encoding="UTF-8"?>
<svg id="Layer_1" xmlns="http://www.w3.org/2000/svg" version="1.1" viewBox="0 0 40 40">
  <!-- Generator: Adobe Illustrator 29.1.0, SVG Export Plug-In . SVG Version: 2.1.0 Build 142)  -->
  <defs>
    <style>
      .st0 {
        fill: #5a2c3a;
      }
    </style>
  </defs>
  <path class="st0" d="M0,0v40h40V0H0ZM21,38v-13h-5v-3h5v-5.7c0-4,2.2-6.3,5.9-6.3,1,0,2.1,0,3.1.2v2.7h-.6c-.3,0-.5,0-.8,0-2.2.2-3.8,2.1-3.6,4.2v4.8h4.6l-.5,3h-4.2v13h-4ZM38,38h-11v-11h3.9l1.1-7h-5v-2.9c-.1-1.1.7-2,1.8-2.1.1,0,.3,0,.4,0h2.8s0-6.4,0-6.4h-.8c-1.4-.4-2.8-.5-4.3-.5-4.9,0-7.9,3.2-7.9,8.3v3.7h-5v7h5v11H2V2h36v36Z"/>
</svg>