<?xml version="1.0" encoding="UTF-8"?>
<svg id="Layer_1" xmlns="http://www.w3.org/2000/svg" xmlns:xlink="http://www.w3.org/1999/xlink" version="1.1" viewBox="0 0 40 40">
  <!-- Generator: Adobe Illustrator 29.1.0, SVG Export Plug-In . SVG Version: 2.1.0 Build 142)  -->
  <defs>
    <style>
      .st0 {
        fill: none;
      }

      .st1 {
        fill: #5a2c3a;
      }

      .st2 {
        clip-path: url(#clippath);
      }
    </style>
    <clipPath id="clippath">
      <rect class="st0" x="8" y="7" width="24" height="24"/>
    </clipPath>
  </defs>
  <g id="Group_31">
    <g id="Group_16">
      <g id="Rectangle_17">
        <rect class="st0" width="40" height="40"/>
        <path class="st1" d="M40,40H0V0h40v40ZM2,38h36V2H2v36Z"/>
      </g>
    </g>
    <g id="Group_27">
      <g class="st2">
        <g id="Group_27-2">
          <path class="st1" d="M9,31c-.3,0-.5-.1-.7-.3-.2-.2-.3-.6-.3-.9l1.3-5.3c-.9-1.7-1.3-3.6-1.3-5.5,0-6.6,5.4-12,12-12s12,5.4,12,12-5.4,12-12,12c-1.9,0-3.8-.5-5.5-1.3l-5.3,1.3c0,0-.2,0-.2,0ZM14.6,27.6c.2,0,.3,0,.5.1,1.5.8,3.2,1.3,4.9,1.3h0c5.5,0,10-4.5,10-10s-4.5-10-10-10-10,4.5-10,10c0,1.7.4,3.4,1.3,4.9.1.2.2.5,0,.7l-1,4,4-1c0,0,.2,0,.2,0Z"/>
          <path id="Path_8" class="st1" d="M18.7,20.3c-.5-.5-2.3-2.5-1.6-3.1s.9-.7,1.2-1c1-1-.1-2.2-.9-2.9,0,0-1.2-1.2-2.6.2-2.6,2.6,1.1,7.3,2.2,8.4,1.1,1.1,5.8,4.8,8.4,2.2,1.5-1.5.3-2.6.2-2.6-.7-.7-1.9-1.8-2.9-.9s-.8,1-1,1.2c-.7.7-2.7-1.2-3.1-1.6Z"/>
        </g>
      </g>
    </g>
  </g>
</svg>