<?xml version="1.0" encoding="UTF-8"?>
<svg id="Layer_1" xmlns="http://www.w3.org/2000/svg" xmlns:xlink="http://www.w3.org/1999/xlink" version="1.1" viewBox="0 0 360 163">
  <!-- Generator: Adobe Illustrator 29.1.0, SVG Export Plug-In . SVG Version: 2.1.0 Build 142)  -->
  <defs>
    <style>
      .st0 {
        fill: none;
      }

      .st1 {
        isolation: isolate;
      }

      .st2 {
        fill: #eee1d4;
      }

      .st3 {
        fill: #84958f;
      }

      .st4 {
        clip-path: url(#clippath);
      }
    </style>
    <clipPath id="clippath">
      <rect class="st0" width="360" height="162.9"/>
    </clipPath>
  </defs>
  <g class="st4">
    <g id="Group_10">
      <rect class="st0" x="147.9" y="73.6" width="212.1" height="57.6"/>
      <rect class="st0" x="147.9" y="73.6" width="212.1" height="57.6"/>
      <g class="st1">
        <path class="st2" d="M174.1,104.8c0,.3-.2.5-.4.7-.2.2-.4.3-.7.4-.3.1-.5.2-.8.2-.3,0-.5,0-.8,0s-.2,0-.3,0c0,0-.2,0-.3,0s-.2,0-.2.2,0,.2-.2.2c-.1,0-.2,0-.3,0-.1,0-.2,0-.3,0s-.3,0-.4,0c-.1,0-.3,0-.4,0s-.3,0-.4,0c0,0-.1,0-.2-.1,0,0-.1-.1-.2-.2,0,0-.1-.1-.2-.2-.1,0-.3,0-.4,0,0,0-.2,0-.4-.2-.2-.2-.5-.5-.6-.8-.2-.3-.3-.6-.5-.9-.2-.3-.3-.7-.5-1-.2-.3-.4-.6-.6-.9h-.2c-.4,0-.6.2-.8.5-.1,0-.2-.1-.3-.2-.1,0-.2-.2-.3-.2-.5.1-1,.3-1.5.4-.5.1-1,.2-1.5.2h-.4c-.1,0-.3,0-.4,0-.2,0-.4.2-.6.3s-.3.2-.6.2-.3,0-.4-.1c-.1,0-.2,0-.2.2s0,.2-.2.2h-.3c-.3,0-.6,0-.8,0-.3,0-.6,0-.8,0s-.8,0-1.2-.2c-.1,0-.2,0-.3,0,0,0-.1.1-.2.2,0,0,0,.2-.1.2,0,0,0,.1-.2.2,0,0-.2,0-.3,0,0,.2-.1.4-.3.6-.2.1-.2.4-.2.6-.2.1-.4.3-.6.5-.1.2-.3.4-.4.6-.1.2-.3.4-.4.6-.2.2-.3.3-.6.4-.1.1-.1.3,0,.6-.2.2-.5.3-.8.5-.3.1-.6.2-.9.2-.6,0-1-.3-1.2-1,0-.2,0-.4,0-.7,0-.2,0-.5.1-.7,0-.2.2-.4.3-.6.1-.2.3-.3.5-.4,0-.2,0-.3-.2-.4-.1,0-.2-.2-.2-.4.6-.3,1-.6,1.4-1,.4-.4.8-.9,1.1-1.4s.7-1,1-1.5c.3-.5.7-.9,1.2-1.3v-.6c.6-.7,1-1.4,1.2-2.2.2,0,.4-.1.4-.3,0-.2.1-.4.1-.6.1,0,.2,0,.2-.1s.1-.1.3,0c.2-.5.4-.9.6-1.3.2-.4.4-.8.7-1.2.2-.4.4-.9.6-1.3.2-.5.3-1,.4-1.5.3,0,.4-.2.5-.4,0-.3,0-.5.1-.7.3-.3.5-.6.7-1s.3-.8.4-1.2c.1-.4.3-.8.4-1.3s.4-.8.7-1.1h0c0-.2,0-.3-.1-.3,0,0-.1,0-.1-.2,0,0,0,0,0,0,.2-.1.4-.3.6-.5.1-.2.3-.4.6-.5.4.3.8.6,1.1.6.3,0,.8.1,1.3.2.3.3.4.6.4,1,0,.4,0,.8.2,1.2.2.7.3,1.3.5,1.9.2.6.3,1.3.4,1.9,0,.4.2.8.3,1.1.2.3.3.7.3,1.1,0,.3,0,.6,0,1,0,.4,0,.7.1.9l.2.5c.1.2.2.5.3.7,0,.2.1.5.2.7.2.6.3,1.3.4,2,.1.7.3,1.3.6,1.9.1.2.3.3.5.4.2,0,.5.1.7.2s.5,0,.8,0c.3,0,.5,0,.7,0h.3c.1,0,.2,0,.4,0,0,.2.1.3.1.4,0,.2,0,.4-.2.6s-.2.3-.2.5,0,.2.1.3c0,0-.2,0-.4,0-.5,0-.9,0-1.4.2.2.3.4.6.7.9.3.2.6.5.9.7.2-.2.4-.2.6-.2s.5,0,.7.2c.2.1.4.2.7.2s.3,0,.4,0c.2.2.3.4.4.6.1.2.2.4.4.5ZM164.5,99.9c0-.3-.1-.6-.2-.8,0-.2-.2-.3-.2-.6,0-.3-.1-.6-.2-.9,0-.3,0-.6-.1-1-.1-.7-.3-1.4-.5-2.1-.2-.7-.4-1.4-.7-2,0-.1.1-.2.1-.3h0c-.2-.3-.3-.5-.4-.8,0-.3-.2-.6-.2-.9,0-.3-.2-.6-.3-.8-.1-.3-.3-.5-.5-.6,0,.1,0,.3,0,.4s0,.3,0,.4c0,.1,0,.3,0,.4-.2.1-.4.3-.4.5,0,.2-.2.4-.4.5-.2.7-.4,1.3-.7,1.9-.3.6-.6,1.2-1,1.7s-.7,1.2-1,1.7c-.3.6-.6,1.2-.7,1.8-.3.2-.4.4-.5.7,0,.3-.1.6-.1.9.2.1.4.2.6.2.2,0,.5,0,.7,0s.4,0,.6,0c.2,0,.4.1.6.3.3,0,.6-.1.9-.2.3,0,.6-.1.8-.3.4.1.8.2,1.3.2s.5,0,.7,0c.2,0,.5,0,.7-.2.2,0,.3.1.4.2.1,0,.3.1.5.1.1,0,.2-.2.2-.3,0,0,0-.2.2-.3Z"/>
        <path class="st2" d="M190.6,99.1c0,.2,0,.4-.2.5-.2.1-.2.3-.2.4s0,.2.1.3c-.3,0-.5,0-.6.3-.1.2-.2.4-.3.6h-.4c-.1,0-.2,0-.2,0,0,0-.1,0-.2.2,0,0-.1.2-.2.3-.4,0-.8.2-1.1.4-.4.2-.7.4-1,.6-.3.2-.7.4-1,.6s-.7.4-1.1.5c-.2.3-.5.6-.8.7h0c-.1,0-.2,0-.3,0,0,0-.2,0-.3,0s-.1,0-.1,0c-.6.4-1.3.6-2.1.6s-.4,0-.6,0c-.2,0-.4,0-.6,0s-.1,0-.1,0h0c0,.2,0,.2,0,.2s-.1,0-.2,0c-.2,0-.5,0-.7,0-.2,0-.5,0-.7,0-.5-.3-.8-.5-1.1-.8s-.5-.6-.7-1.1c-.1-.2-.2-.4-.4-.6-.2-.2-.3-.4-.4-.7,0,0,0-.2,0-.4s0-.4-.1-.7c0-.2,0-.5-.1-.7,0-.2,0-.4,0-.5,0-.2,0-.5,0-.7,0-.2,0-.5.1-.7.1-.8.2-1.6.3-2.3,0-.8.2-1.5.5-2.3,0-.2,0-.4,0-.6v-.7c0-.4,0-.7-.2-1,.2-.3.2-.6.2-.9s-.2-.6-.5-.6h0c0-.5-.1-.9-.4-1.1,0-.7.2-1.3.5-1.6s.8-.7,1.4-.9c0-.1.1-.2,0-.3.1,0,.3,0,.4.1.1,0,.2,0,.4,0,.2,0,.4,0,.6,0,0,.2.2.4.5.4.3,0,.5.1.6.2v.4c0,.6.2,1.2.5,1.8,0,.2-.1.3-.2.5,0,.2,0,.4,0,.5,0,.2,0,.5,0,.7,0,.2,0,.5,0,.7s0,.5,0,.7c0,.2-.2.5-.4.6,0,.3,0,.6,0,.9,0,.3,0,.7,0,1,0,.3,0,.7-.2,1,0,.3-.2.6-.4.8,0,.3,0,.6,0,.9,0,.3,0,.6,0,.9,0,.5,0,1,0,1.6,0,.6.2,1.1.4,1.5.1.2.3.3.6.4.3,0,.5.1.7.1s.5,0,.7-.1c.2,0,.4-.2.5-.4.1,0,.2,0,.2.2,0,.1.1.2.2.2,1.2-.5,2.3-1,3.5-1.4,1.2-.4,2.3-1,3.4-1.6.2,0,.3.1.5.1s.4,0,.6,0c.2,0,.4,0,.6,0h.2c0,.1,0,.2,0,.3Z"/>
        <path class="st2" d="M209.5,102c0,.3-.2.6-.4.8-.2.2-.4.4-.6.6-.2.2-.5.3-.8.4s-.5.3-.8.4h-.4c-.9,0-1.5-.2-2-.6-.5-.4-.8-.9-1.1-1.6-.2-.6-.4-1.3-.5-2-.1-.7-.3-1.4-.4-2-.2.2-.5.4-.6.7-.2.3-.3.5-.5.8s-.4.5-.6.7c-.2.2-.5.4-.8.5,0,.1-.1.3-.2.4,0,.1-.1.3-.1.5-.4.2-.9.5-1.2.9-.4.3-.7.7-1.1,1s-.7.7-1.1,1c-.4.3-.8.6-1.3.8,0,0,0,0-.1,0-.2,0-.5,0-.7.2s-.4.2-.7.2-.3,0-.4,0-.3-.1-.4-.2c-.1,0-.3-.1-.4-.2s-.3,0-.5,0c-.2-.4-.5-.7-.8-1-.3-.3-.5-.7-.6-1.1,0-.2,0-.4,0-.6,0-.2,0-.4,0-.6,0-.3-.1-.6-.2-.9-.1-.3-.2-.6-.2-1,.1-.6.2-1.2.3-1.8s.2-1.3.3-2c.1-.7.3-1.3.6-1.9.2-.6.5-1.1.9-1.5v-.2c0-.3,0-.6.2-.9.1-.3.3-.6.4-.8.1-.3.3-.5.4-.8s.1-.6,0-.9c.2-.1.5-.2.8-.3s.5-.1.8-.1.5,0,.7.1c0,.2,0,.3.2.3h0c0,.5,0,.9-.2,1.3s-.2.8-.4,1.2c-.1.4-.3.8-.4,1.2s-.2.8-.3,1.2c0,0-.1,0-.2.1,0,0,0,.1,0,.2,0,0,0,.1,0,.2,0,0-.1,0-.2,0-.1.7-.2,1.4-.4,2.1-.1.7-.2,1.4-.2,2.1s0,.9.1,1.3c0,.5.2.9.5,1.3h.1c.2,0,.4,0,.5.1.1.1.3.2.5.3.2,0,.3,0,.5-.2.1,0,.2-.2.2-.4.3,0,.5,0,.7-.2.2-.1.3-.2.5-.4l.5-.4c.2-.1.4-.2.6-.3,0-.1,0-.2,0-.3l.2-.2c0,0,.1-.1.1-.2s0-.2,0-.3c.2,0,.4,0,.6-.2.1-.1.3-.2.4-.4s.2-.3.3-.4.2-.3.4-.4c.1-.3.3-.7.6-1.2.3-.5.5-1,.8-1.6.3-.6.5-1.1.7-1.6s.3-.9.3-1.1,0-.2,0-.3c0,0,0-.2,0-.3h0c.2-.3.3-.5.4-.8.1-.2.3-.5.4-.7.2-.2.3-.4.5-.6.2-.2.4-.3.7-.4.3.1.7.2,1,.2s.7.1,1,.2c0,.5,0,1.1.2,1.8,0,.7.2,1.2.4,1.7,0,.3,0,.5,0,.8,0,.2,0,.5,0,.7,0,.4,0,.8,0,1.3,0,.4,0,.8.2,1.2-.1.3-.2.6-.2,1s0,.9.2,1.3c.1.4.2.9.3,1.3.3.4.6.6,1,.6s.2,0,.3,0c0,0,.1,0,.2,0,.2.2.3.4.4.5.1.2.3.3.5.5Z"/>
        <path class="st2" d="M233.5,101.5c0,.2,0,.4-.2.5-.1.1-.2.3-.4.4-.2.1-.3.2-.5.3s-.3.2-.4.3c0,0-.1.2-.2.3,0,.1,0,.2-.2.2-.1.1-.3.2-.4.2-.1,0-.3,0-.4,0-.2,0-.3,0-.4.1-.1,0-.3.1-.4.3-1,.1-1.9.2-2.8.4-.9.2-1.9.2-2.9.2s-.4,0-.6,0c-.2,0-.4,0-.6,0-.4,0-.9,0-1.3,0s-.8,0-1.3,0-1.2,0-1.8,0c-.6,0-1.2-.1-1.7-.3-.1-.1-.3-.2-.5-.2-.2,0-.4-.1-.6-.2s-.4-.1-.5-.2c-.2,0-.3-.2-.4-.4-.3,0-.6,0-.8-.2-.2-.1-.5-.2-.6-.4s-.4-.3-.6-.4c-.2-.1-.4-.3-.7-.4-.2-.3-.4-.6-.6-.8-.2-.3-.5-.5-.8-.7,0-.4-.2-.8-.3-1.2-.1-.4-.3-.8-.4-1.2-.1-.4-.2-.8-.3-1.1,0-.4-.1-.8-.1-1.2s0-.6.1-1c0-.4.2-.8.3-1.2s.3-.8.5-1.2.4-.7.6-.9c0,0,.1-.1.2-.2,0,0,.2-.1.2-.2.2-.2.4-.4.6-.5s.4-.3.6-.5c0,0,.1-.2.2-.3,0-.1.1-.2.2-.3,0,0,.1,0,.3,0s.2,0,.3,0c0,0,.1-.1.1-.2s0-.2,0-.2c0,0,0,0,.2,0,.1,0,.2,0,.2,0,.1,0,.3,0,.5-.3.2-.2.3-.3.5-.4.1,0,.3-.1.4-.2s.3,0,.5-.2c.2-.1.4-.2.7-.3.2,0,.4-.2.7-.3.1,0,.2-.1.3-.2.1-.1.2-.2.3-.2.2,0,.4-.1.6-.1s.4,0,.6,0,.4,0,.6-.1c.2,0,.4-.1.5-.3h.2c.4,0,.7,0,1.1-.2s.7-.2,1.1-.2.3,0,.5,0c.2-.1.3-.2.6-.2.3,0,.7,0,1,.3.3.2.7.3,1.1.3h.2c0,0,.2,0,.2,0,.2.2.5.3.8.4.3,0,.6.1.8.3.1.1.3.3.4.4,0,.2.2.3.2.5l.2.6c0,.2.1.3.2.5-.1.7-.4,1.3-.9,1.8s-1.1.7-1.9.7-.5,0-.7-.1c-.2,0-.4-.1-.5-.2s-.3-.2-.5-.2c-.2,0-.3-.1-.6-.2.2-.4.4-.8.4-1.3-.2-.1-.5-.2-.7-.2-.2,0-.4-.1-.6-.2-.6.1-1.1.2-1.6.3-.5,0-1,.3-1.5.7-.1,0-.2,0-.3,0s-.2,0-.3,0-.4,0-.7.3c-.4.2-.8.4-1.2.6-.4.2-.8.4-1.2.7-.4.2-.6.4-.8.5-.2.1-.3.2-.4.4-.1.1-.2.3-.4.4s-.2.3-.4.4c-.1.1-.3.2-.5.3,0,.2-.1.4-.2.6-.1.2-.2.3-.3.5,0,.4,0,.7-.1,1.1,0,.4,0,.7,0,1.1v.4c0,.1,0,.2,0,.3.2.3.4.6.5.9s.4.6.7.7c0,0,0,.1,0,.2,0,0,0,0,0,.2.1.2.3.4.5.5.2.1.4.3.6.4.2.1.4.3.6.4.2.1.3.3.4.6.3,0,.6,0,.9.2s.5.2.8.3.5.2.7.3c.2.1.5.2.7.2s.4,0,.6,0c.5.2,1.1.3,1.6.4.5,0,1.1.1,1.6.1s1.3,0,2-.1c.7,0,1.3-.2,2-.2.2,0,.5,0,.7,0s.4,0,.7,0c.3,0,.6-.2.8-.4.3-.2.5-.4.8-.5.2.1.5.2.8.2s.7,0,1-.2.7-.2,1-.2h.2Z"/>
        <path class="st2" d="M256,104.8c0,.3-.2.5-.4.7-.2.2-.4.3-.7.4-.3.1-.5.2-.8.2-.3,0-.5,0-.8,0s-.2,0-.3,0c0,0-.2,0-.3,0s-.2,0-.2.2,0,.2-.2.2c-.1,0-.2,0-.3,0-.1,0-.2,0-.3,0s-.3,0-.4,0-.3,0-.4,0-.3,0-.4,0-.1,0-.2-.1c0,0-.1-.1-.2-.2,0,0-.1-.1-.2-.2-.1,0-.3,0-.4,0,0,0-.2,0-.4-.2-.2-.2-.5-.5-.6-.8-.2-.3-.3-.6-.5-.9-.2-.3-.3-.7-.5-1-.2-.3-.4-.6-.6-.9h-.2c-.4,0-.6.2-.8.5-.1,0-.2-.1-.3-.2s-.2-.2-.3-.2c-.5.1-1,.3-1.5.4-.5.1-1,.2-1.5.2h-.4c-.1,0-.3,0-.4,0-.2,0-.4.2-.6.3-.2.1-.3.2-.6.2s-.3,0-.4-.1c-.1,0-.2,0-.2.2,0,.1,0,.2-.2.2h-.3c-.3,0-.6,0-.8,0-.3,0-.6,0-.8,0s-.8,0-1.2-.2c-.1,0-.2,0-.3,0,0,0-.1.1-.2.2s0,.2-.1.2c0,0,0,.1-.2.2,0,0-.2,0-.3,0,0,.2-.1.4-.3.6-.2.1-.2.4-.2.6-.2.1-.4.3-.6.5-.1.2-.3.4-.4.6-.1.2-.3.4-.4.6-.2.2-.3.3-.6.4-.1.1-.1.3,0,.6-.2.2-.5.3-.8.5-.3.1-.6.2-.9.2-.6,0-1-.3-1.2-1,0-.2,0-.4,0-.7,0-.2,0-.5.1-.7,0-.2.2-.4.3-.6.1-.2.3-.3.5-.4,0-.2,0-.3-.2-.4-.1,0-.2-.2-.2-.4.6-.3,1-.6,1.4-1,.4-.4.8-.9,1.1-1.4.3-.5.7-1,1-1.5.3-.5.7-.9,1.2-1.3v-.6c.6-.7,1-1.4,1.2-2.2.2,0,.4-.1.4-.3,0-.2.1-.4.1-.6.1,0,.2,0,.2-.1,0,0,.1-.1.3,0,.2-.5.4-.9.6-1.3.2-.4.5-.8.7-1.2.2-.4.4-.9.6-1.3.2-.5.3-1,.4-1.5.3,0,.4-.2.5-.4,0-.3,0-.5.1-.7.3-.3.5-.6.7-1s.3-.8.4-1.2c.1-.4.3-.8.4-1.3s.4-.8.7-1.1h0c0-.2,0-.3-.1-.3,0,0-.1,0-.1-.2,0,0,0,0,0,0,.2-.1.4-.3.6-.5.1-.2.3-.4.6-.5.4.3.8.6,1.1.6.3,0,.8.1,1.3.2.3.3.4.6.4,1,0,.4,0,.8.2,1.2.2.7.3,1.3.5,1.9.2.6.3,1.3.4,1.9,0,.4.2.8.3,1.1.2.3.3.7.3,1.1,0,.3,0,.6,0,1,0,.4,0,.7.1.9l.2.5c.1.2.2.5.3.7,0,.2.1.5.2.7.2.6.3,1.3.4,2s.3,1.3.6,1.9c.1.2.3.3.5.4.2,0,.5.1.7.2s.5,0,.8,0c.3,0,.5,0,.7,0h.3c.1,0,.2,0,.4,0,0,.2.1.3.1.4,0,.2,0,.4-.2.6s-.2.3-.2.5,0,.2.1.3c0,0-.2,0-.4,0-.5,0-.9,0-1.4.2.2.3.4.6.7.9.3.2.6.5.9.7.2-.2.4-.2.6-.2s.5,0,.7.2c.2.1.4.2.7.2s.3,0,.4,0c.2.2.3.4.4.6.1.2.2.4.4.5ZM246.5,99.9c0-.3-.1-.6-.2-.8,0-.2-.2-.3-.2-.6,0-.3-.1-.6-.2-.9,0-.3,0-.6-.1-1-.1-.7-.3-1.4-.5-2.1-.2-.7-.4-1.4-.7-2,0-.1.1-.2.1-.3h0c-.2-.3-.3-.5-.4-.8,0-.3-.2-.6-.2-.9,0-.3-.2-.6-.3-.8-.1-.3-.3-.5-.5-.6,0,.1,0,.3,0,.4s0,.3,0,.4c0,.1,0,.3,0,.4-.2.1-.4.3-.4.5,0,.2-.2.4-.4.5-.2.7-.4,1.3-.7,1.9-.3.6-.6,1.2-1,1.7-.3.6-.7,1.2-1,1.7-.3.6-.6,1.2-.7,1.8-.3.2-.4.4-.5.7s-.1.6-.1.9c.2.1.4.2.6.2.2,0,.5,0,.7,0s.4,0,.6,0,.4.1.6.3c.3,0,.6-.1.9-.2.3,0,.6-.1.8-.3.4.1.8.2,1.3.2s.5,0,.7,0,.5,0,.7-.2c.2,0,.3.1.4.2s.3.1.5.1c.1,0,.2-.2.2-.3,0,0,0-.2.2-.3Z"/>
        <path class="st2" d="M305.3,108.3c0,.4-.2.7-.4,1-.2.2-.6.4-1,.4s-.4,0-.6,0c-.4.3-.8.5-1.4.7-.5.2-1,.3-1.5.5-.6,0-1.1,0-1.7-.2-.6,0-1.1-.1-1.7,0-.2-.1-.4-.2-.6-.3-.2,0-.5,0-.7,0-.2,0-.5,0-.7-.1-.2,0-.4-.2-.6-.4h-1.5c-.1,0-.4,0-.6-.2-.3-.1-.6-.3-.9-.4-.3-.1-.7-.3-1.1-.4-.4-.1-.7-.2-1.1-.2h-.2c-.2-.2-.5-.3-.8-.4-.3,0-.6-.2-.9-.2-.3,0-.6-.1-.9-.2-.3,0-.5-.2-.7-.3-.2-.1-.4-.3-.7-.4s-.5-.2-.8-.2c-.4-.2-.8-.4-1.2-.6-.4-.2-.8-.3-1.3-.5l-1.3-.5c-.4-.2-.8-.4-1.2-.6,0,0-.1,0-.2,0,0,0-.2,0-.2,0-.1,0-.2,0-.2.1-.1-.1-.3-.3-.5-.4s-.3-.2-.5-.4c0,0-.2,0-.2,0,0,0-.2,0-.3,0-.2,0-.4,0-.5,0s-.3,0-.5-.2c-.2.4-.3.9-.4,1.4,0,.5-.1,1-.1,1.6,0,.5,0,1.1-.1,1.6s-.1,1-.3,1.5c0,.2,0,.3,0,.5v.5c0,.3,0,.6.2.8,0,.2,0,.4-.1.5,0,.2,0,.3-.1.5,0,.2,0,.4,0,.6,0,.2,0,.4,0,.6v.5c0,.2,0,.4,0,.6-.2.1-.4.2-.6.4-.2.1-.4.2-.6.4-.1-.3-.4-.4-.7-.5,0,.1-.1.2-.2.4,0,.2-.1.3-.3.3-.3-.2-.5-.4-.7-.6-.2-.1-.4-.4-.6-.6,0,0,0,0,0-.2,0-.1,0-.2,0-.3,0,0,0-.2,0-.2,0-.2,0-.5,0-.6,0-.3,0-.5,0-.8,0-.3,0-.5,0-.8,0-.3,0-.7,0-1,0-.3.1-.7.3-1,.2-.6.4-1.2.5-1.9,0-.7.2-1.3.2-2s0-1.3,0-2c0-.7,0-1.3.1-1.9-.1-.3-.3-.6-.5-.8s-.3-.5-.3-.9.1-.7.4-.9c.2-.2.5-.5.6-.8,0-.1,0-.2,0-.2l.4-3.2c0-.2,0-.5.1-.7,0-.3,0-.5.1-.7,0-.5,0-.9,0-1.4s0-.9,0-1.3c.1-1,.2-2,.3-3,0-1,.1-2,.1-2.9s0-.9,0-1.4c0-.5,0-.9-.2-1.4-.3.1-.7.2-1.2.3s-.8.3-1.1.6h-.2c-.5,0-1,.1-1.5.3-.5.2-.9.4-1.4.6-.2.1-.4.2-.6.2-.2,0-.4,0-.6.1-.1,0-.2,0-.3.2-.1.1-.2.2-.3.2h-.5c-.1.2-.2.3-.2.4,0,.1,0,.2-.2.3-.1.1-.2.1-.4.1-.2,0-.3,0-.4,0h-.1c-.5.4-1,.7-1.5.9-.5.3-1,.4-1.7.5l-.7.4c-.2.1-.5.2-.8.2s-.4,0-.6-.1c-.2-.2-.3-.5-.4-.8s-.2-.6-.5-.8c.1-.1.2-.2.2-.4,0-.2,0-.3.1-.5.6-.3,1.2-.5,1.9-.8.6-.2,1.2-.5,1.8-.9,0,0,.2,0,.3,0,.2,0,.4,0,.6,0,.2,0,.3-.1.5-.2.2,0,.3-.2.5-.2.2,0,.4,0,.6,0,.7-.4,1.4-.7,2.2-1s1.5-.6,2.2-1c.1,0,.2,0,.3,0,0,0,.1,0,.2,0s.1,0,.2,0c.1-.2.3-.3.5-.4.2,0,.4-.1.6-.2.2,0,.4-.1.6-.2.2,0,.3-.2.4-.4.1,0,.3.1.5.1.3,0,.7,0,1-.2.3-.1.6-.2,1-.2s.2,0,.2,0c0,0,.1,0,.2,0,.2,0,.2,0,.3-.2,0-.1,0-.2.2-.3,1.2-.2,2.5-.4,3.7-.6,1.2-.2,2.5-.3,3.8-.3.2-.1.4-.2.6-.2s.4,0,.6.2c.3,0,.7,0,1,0,.3,0,.7,0,1,0,.8,0,1.6,0,2.5.2.8.1,1.7.3,2.5.5.8.2,1.6.5,2.4.9.8.4,1.5.8,2.1,1.3,0,.2.1.4.2.6.1.2.2.3.4.4,0,0,0,0,0,0,0,0,0,0,0,0,0,.2,0,.4.2.6.1.2.2.4.2.7s0,.6-.1.9c0,.3-.1.6-.1.9-.2.3-.4.6-.6.9-.2.3-.3.6-.3,1-.4.4-.7.8-1,1.2-.3.4-.6.9-.9,1.3-.3.4-.6.8-1,1.1-.4.3-.8.6-1.3.8,0,.2-.1.4-.2.7h-.6c0,.2-.2.3-.3.4l-.4.2c-.1,0-.3.2-.4.3,0,.1-.1.3-.1.5,0,0,0,0-.2,0-.2,0-.4.1-.7.3-.3.2-.5.4-.7.5-.3.2-.7.5-1.1.7-.4.2-.7.5-.9.9-.8.3-1.6.8-2.3,1.2-.7.5-1.5.8-2.4,1.1-.3.3-.7.6-1.2.8s-.9.4-1.3.6h0c0,.3,0,.4.2.6.1.2.3.3.4.4.2.1.3.2.5.2s.4,0,.5,0c.4.4.9.7,1.4.9.5.2,1.1.4,1.7.6.6.2,1.1.4,1.7.6.6.2,1.1.5,1.5.8h.7c.5.4,1,.7,1.7.9.6.2,1.3.4,1.9.6.2.2.6.4.9.5.4.1.7.2,1.1.2h.2c0,0,.2,0,.2,0h0c0,.2,0,.2,0,.3,0,0,.1,0,.2,0,0,0,.1,0,.2,0,0,0,.1,0,.2.1h.3c.4,0,.8,0,1.2.3.4.2.8.3,1.2.3s.3,0,.4,0c.1,0,.2.1.3.2,0,.1.1.2.2.3.1,0,.3,0,.4,0,.1,0,.2,0,.4,0,.4,0,.9,0,1.3.2.4.1.8.3,1.2.5.7-.3,1.3-.5,1.9-.7.6-.2,1.3-.3,2-.3h0c0,.3,0,.5.2.8.1.2.2.4.4.7ZM293.5,83.8c0-.2,0-.4-.1-.6s-.2-.3-.4-.4-.3-.2-.4-.3c-.2-.1-.3-.2-.4-.4-.5-.2-1.1-.3-1.6-.6-.5-.2-1-.4-1.6-.5-.3,0-.5-.1-.8-.2-.3,0-.5,0-.8,0h-.7c-.1,0-.3,0-.4,0s-.3,0-.4,0c-.3,0-.6,0-.8,0s-.6,0-.8,0c-.5,0-1.1,0-1.6,0h-1.6c-.2.1-.5.2-.7.2s-.5,0-.7,0c-.1,0-.2,0-.4.1-.2,0-.4.1-.6.2-.2,0-.4.1-.6.2-.2,0-.4.1-.5.2,0,.1,0,.3,0,.4v.4c0,.3,0,.6,0,.9s0,.6-.1.9c0,.1,0,.2,0,.4,0,.1,0,.2,0,.4,0,.2,0,.4,0,.6v.6c0,.5,0,.9,0,1.4,0,.5,0,.9,0,1.4-.1,1.3-.2,2.7-.4,4-.1,1.3-.2,2.7-.3,4,.7-.1,1.3-.4,1.9-.6.6-.3,1.2-.6,1.8-.9.6-.3,1.2-.7,1.8-1,.6-.3,1.2-.6,1.9-.8.2-.2.4-.4.6-.6.2-.1.4-.3.6-.6.2,0,.4,0,.5-.1.1,0,.2-.2.4-.2,1-.9,2-1.7,3-2.4,1-.8,2-1.6,2.9-2.4,0-.3.2-.6.4-.8s.4-.6.6-.8c.2-.3.3-.6.5-.9s.2-.6.2-.9Z"/>
        <path class="st2" d="M318.5,104.8c0,.3-.2.5-.4.7-.2.2-.4.3-.7.4-.3.1-.5.2-.8.2-.3,0-.5,0-.8,0s-.2,0-.3,0c0,0-.2,0-.3,0s-.2,0-.2.2,0,.2-.2.2c-.1,0-.2,0-.3,0-.1,0-.2,0-.3,0s-.3,0-.4,0-.3,0-.4,0-.3,0-.4,0-.1,0-.2-.1c0,0-.1-.1-.2-.2,0,0-.1-.1-.2-.2-.1,0-.3,0-.4,0,0,0-.2,0-.4-.2-.2-.2-.5-.5-.6-.8-.2-.3-.3-.6-.5-.9-.2-.3-.3-.7-.5-1-.2-.3-.4-.6-.6-.9h-.2c-.4,0-.6.2-.8.5-.1,0-.2-.1-.3-.2s-.2-.2-.3-.2c-.5.1-1,.3-1.5.4-.5.1-1,.2-1.5.2h-.4c-.1,0-.3,0-.4,0-.2,0-.4.2-.6.3-.2.1-.3.2-.6.2s-.3,0-.4-.1c-.1,0-.2,0-.2.2,0,.1,0,.2-.2.2h-.3c-.3,0-.6,0-.8,0-.3,0-.6,0-.8,0s-.8,0-1.2-.2c-.1,0-.2,0-.3,0,0,0-.1.1-.2.2s0,.2-.1.2c0,0,0,.1-.2.2,0,0-.2,0-.3,0,0,.2-.1.4-.3.6-.2.1-.2.4-.2.6-.2.1-.4.3-.6.5-.1.2-.3.4-.4.6-.1.2-.3.4-.4.6-.2.2-.3.3-.6.4-.1.1-.1.3,0,.6-.2.2-.5.3-.8.5-.3.1-.6.2-.9.2-.6,0-1-.3-1.2-1,0-.2,0-.4,0-.7,0-.2,0-.5.1-.7,0-.2.2-.4.3-.6.1-.2.3-.3.5-.4,0-.2,0-.3-.2-.4-.1,0-.2-.2-.2-.4.6-.3,1-.6,1.4-1,.4-.4.8-.9,1.1-1.4.3-.5.7-1,1-1.5.3-.5.7-.9,1.2-1.3v-.6c.6-.7,1-1.4,1.2-2.2.2,0,.4-.1.4-.3,0-.2.1-.4.1-.6.1,0,.2,0,.2-.1,0,0,.1-.1.3,0,.2-.5.4-.9.6-1.3.2-.4.5-.8.7-1.2.2-.4.4-.9.6-1.3.2-.5.3-1,.4-1.5.3,0,.4-.2.5-.4,0-.3,0-.5.1-.7.3-.3.5-.6.7-1s.3-.8.4-1.2c.1-.4.3-.8.4-1.3s.4-.8.7-1.1h0c0-.2,0-.3-.1-.3,0,0-.1,0-.1-.2,0,0,0,0,0,0,.2-.1.4-.3.6-.5.1-.2.3-.4.6-.5.4.3.8.6,1.1.6.3,0,.8.1,1.3.2.3.3.4.6.4,1,0,.4,0,.8.2,1.2.2.7.3,1.3.5,1.9.2.6.3,1.3.4,1.9,0,.4.2.8.3,1.1.2.3.3.7.3,1.1,0,.3,0,.6,0,1,0,.4,0,.7.1.9l.2.5c.1.2.2.5.3.7,0,.2.1.5.2.7.2.6.3,1.3.4,2s.3,1.3.6,1.9c.1.2.3.3.5.4.2,0,.5.1.7.2s.5,0,.8,0c.3,0,.5,0,.7,0h.3c.1,0,.2,0,.4,0,0,.2.1.3.1.4,0,.2,0,.4-.2.6s-.2.3-.2.5,0,.2.1.3c0,0-.2,0-.4,0-.5,0-.9,0-1.4.2.2.3.4.6.7.9.3.2.6.5.9.7.2-.2.4-.2.6-.2s.5,0,.7.2c.2.1.4.2.7.2s.3,0,.4,0c.2.2.3.4.4.6.1.2.2.4.4.5ZM308.9,99.9c0-.3-.1-.6-.2-.8,0-.2-.2-.3-.2-.6,0-.3-.1-.6-.2-.9,0-.3,0-.6-.1-1-.1-.7-.3-1.4-.5-2.1-.2-.7-.4-1.4-.7-2,0-.1.1-.2.1-.3h0c-.2-.3-.3-.5-.4-.8,0-.3-.2-.6-.2-.9,0-.3-.2-.6-.3-.8-.1-.3-.3-.5-.5-.6,0,.1,0,.3,0,.4s0,.3,0,.4c0,.1,0,.3,0,.4-.2.1-.4.3-.4.5,0,.2-.2.4-.4.5-.2.7-.4,1.3-.7,1.9-.3.6-.6,1.2-1,1.7-.3.6-.7,1.2-1,1.7-.3.6-.6,1.2-.7,1.8-.3.2-.4.4-.5.7s-.1.6-.1.9c.2.1.4.2.6.2.2,0,.5,0,.7,0s.4,0,.6,0,.4.1.6.3c.3,0,.6-.1.9-.2.3,0,.6-.1.8-.3.4.1.8.2,1.3.2s.5,0,.7,0,.5,0,.7-.2c.2,0,.3.1.4.2s.3.1.5.1c.1,0,.2-.2.2-.3,0,0,0-.2.2-.3Z"/>
        <path class="st2" d="M338.8,91.9c0,.2,0,.3-.2.4s-.2.2-.2.4,0,.1,0,.2,0,.1,0,.2h0c-.2,1.3-.6,2.3-1.1,3.2s-1,1.7-1.6,2.4c-.6.7-1.3,1.4-2.1,2.1s-1.6,1.3-2.5,2.1c-.2.2-.5.4-.8.6-.3.2-.5.4-.7.6l-.7.6s-.1,0-.3.1c-.2,0-.3.1-.4.1-.3.1-.6.3-.9.4-.3.2-.6.4-.8.6-.4,0-.8,0-1,.2-.3.1-.6.3-1,.5-.1,0-.2,0-.3,0,0,0-.1,0-.2-.1,0,0-.2,0-.3,0,0,0-.2,0-.4,0-.2-.4-.5-.8-.8-1-.3-.3-.7-.5-1.2-.5,0-.3-.2-.6-.4-.8-.2-.2-.5-.4-.7-.6,0-.1,0-.3,0-.4,0-.2,0-.3-.1-.5,0-.1-.1-.3-.2-.4-.1-.1-.2-.2-.4-.2,0-.1,0-.2.2-.2s.2,0,.2-.2,0-.2,0-.4,0-.3,0-.4,0-.2,0-.3c0,0,0-.2,0-.3,0-.6,0-1.1,0-1.7,0-1.1,0-2.2.2-3.3.2-1.1.2-2.2.2-3.3s0-1,0-1.5c0-.5-.1-1-.3-1.4-.5.1-.9.2-1.4.4-.5.1-.9.3-1.3.5-.2-.1-.5-.2-.7-.3-.3,0-.5,0-.8-.2-.1-.3-.2-.6-.2-.9s0-.6.2-.8l.3-.8c.5-.1,1-.3,1.5-.5.5-.2,1-.4,1.5-.6.2,0,.4,0,.6-.2.3,0,.4-.1.5-.2.1,0,.2-.2.3-.4,0-.2.1-.3.2-.4h.5c.1,0,.3,0,.4,0,.1,0,.3,0,.4.1.7-.2,1.5-.3,2.2-.4.7,0,1.5-.1,2.3-.2,0,0,.2,0,.4,0h.5c.2-.1.4-.2.5-.2.2,0,.3,0,.3,0s0,0,0,0h.5c.9,0,1.7.1,2.6.3l2.5.7c.3.3.7.6,1,.8s.7.5,1.2.7c.1.3.3.6.5.8.2.2.5.4.7.6.1.3.2.5.4.8s.3.6.5.9c.2.3.3.6.4.9.1.3.2.6.2.8ZM336,92.3c-.2-.5-.4-1-.6-1.5-.2-.5-.5-1-.8-1.4-.4-.1-.7-.2-1.1-.4s-.6-.4-.8-.8c0,0-.1,0-.2,0-.2,0-.3,0-.5-.2-.1-.1-.3-.2-.5-.3-.2,0-.4,0-.7,0-.3,0-.6,0-.9,0-.3,0-.6,0-.9,0-.3,0-.5,0-.7,0s-.3,0-.5,0c-.2,0-.4,0-.5,0-.2,0-.3,0-.3,0,0,0-.1,0-.2.1-.1,0-.2,0-.3,0h-.4c-.4,0-.9,0-1.3.2s-.8.3-1.2.5h0c0,.3,0,.4.2.4.1,0,.2.1.2.2-.1,0-.2,0-.2,0s0,0,0,.2c0,.2,0,.4,0,.7,0,.2,0,.5,0,.7s0,.4,0,.6-.1.4-.3.6c.2.2.3.4.3.7s0,.4-.1.6c0,.2-.2.4-.3.6,0,.9-.1,1.7-.2,2.6-.1.9-.2,1.7-.2,2.6s0,.8,0,1.3c0,.4.1.8.3,1.2.2.2.5.4.7.5.3.1.5.2.8.4h0c0,.2,0,.2-.1.3,0,0-.1.1-.1.2s0,.1.1.1c.9-.2,1.7-.5,2.4-.9.8-.3,1.5-.8,2.1-1.4,0,0,.1,0,.2,0s0,0,.2,0,.1,0,.2,0h0c0-.2,0-.4.1-.5,0-.1.2-.2.3-.3l.3-.3c.1-.1.2-.2.2-.3.2,0,.3-.1.4-.2,0-.1.2-.2.4-.2,0-.2.2-.4.3-.5.2-.1.3-.3.3-.5.4-.2.8-.5,1.1-.8.3-.3.6-.7.9-1,.3-.4.5-.8.8-1.1s.5-.8.8-1.2h0c0-.4,0-.7.2-.9.1-.2.2-.4.3-.7Z"/>
        <path class="st2" d="M359.3,102c0,.3-.2.6-.4.8-.2.2-.4.4-.6.6-.2.2-.5.3-.8.4s-.5.3-.8.4h-.4c-.9,0-1.5-.2-2-.6-.5-.4-.8-.9-1.1-1.6-.2-.6-.4-1.3-.5-2-.1-.7-.3-1.4-.4-2-.2.2-.5.4-.6.7-.2.3-.3.5-.5.8s-.4.5-.6.7c-.2.2-.5.4-.8.5,0,.1-.1.3-.2.4,0,.1-.1.3-.1.5-.4.2-.9.5-1.2.9-.4.3-.7.7-1.1,1s-.7.7-1.1,1c-.4.3-.8.6-1.3.8,0,0,0,0-.1,0-.2,0-.5,0-.7.2s-.4.2-.7.2-.3,0-.4,0-.3-.1-.4-.2c-.1,0-.3-.1-.4-.2s-.3,0-.5,0c-.2-.4-.5-.7-.8-1-.3-.3-.5-.7-.6-1.1,0-.2,0-.4,0-.6,0-.2,0-.4,0-.6,0-.3-.1-.6-.2-.9-.1-.3-.2-.6-.2-1,.1-.6.2-1.2.3-1.8s.2-1.3.3-2c.1-.7.3-1.3.6-1.9.2-.6.5-1.1.9-1.5v-.2c0-.3,0-.6.2-.9.1-.3.3-.6.4-.8.1-.3.3-.5.4-.8s.1-.6,0-.9c.2-.1.5-.2.8-.3s.5-.1.8-.1.5,0,.7.1c0,.2,0,.3.2.3h0c0,.5,0,.9-.2,1.3s-.2.8-.4,1.2c-.1.4-.3.8-.4,1.2s-.2.8-.3,1.2c0,0-.1,0-.2.1,0,0,0,.1,0,.2,0,0,0,.1,0,.2,0,0-.1,0-.2,0-.1.7-.2,1.4-.4,2.1-.1.7-.2,1.4-.2,2.1s0,.9.1,1.3c0,.5.2.9.5,1.3h.1c.2,0,.4,0,.5.1.1.1.3.2.5.3.2,0,.3,0,.5-.2.1,0,.2-.2.2-.4.3,0,.5,0,.7-.2.2-.1.3-.2.5-.4l.5-.4c.2-.1.4-.2.6-.3,0-.1,0-.2,0-.3l.2-.2c0,0,.1-.1.1-.2s0-.2,0-.3c.2,0,.4,0,.6-.2.1-.1.3-.2.4-.4s.2-.3.3-.4.2-.3.4-.4c.1-.3.3-.7.6-1.2.3-.5.5-1,.8-1.6.3-.6.5-1.1.7-1.6s.3-.9.3-1.1,0-.2,0-.3c0,0,0-.2,0-.3h0c.2-.3.3-.5.4-.8.1-.2.3-.5.4-.7.2-.2.3-.4.5-.6.2-.2.4-.3.7-.4.3.1.7.2,1,.2s.7.1,1,.2c0,.5,0,1.1.2,1.8,0,.7.2,1.2.4,1.7,0,.3,0,.5,0,.8,0,.2,0,.5,0,.7,0,.4,0,.8,0,1.3,0,.4,0,.8.2,1.2-.1.3-.2.6-.2,1s0,.9.2,1.3c.1.4.2.9.3,1.3.3.4.6.6,1,.6s.2,0,.3,0c0,0,.1,0,.2,0,.2.2.3.4.4.5.1.2.3.3.5.5Z"/>
      </g>
      <path id="Path_3" class="st3" d="M103.9,161.1c-3.3-40.2-8.7-98.3-38.3-127.8-10-9.5-25.3-15.8-38.7-10.8-13.4,4.4-20.5,19.4-17.7,32.4,6.1,23.4,36.4,37.1,57.2,45.4,1.6.4,2.8,1.9,2.9,3.6,0,1-.3,1.9-.9,2.6-2.2,2.4-7.1,4.3-9.9,6-12.9,7.3-24.5,17.4-31,31.4l-.8-.3c4.7-17.2,18.5-30.4,33.4-39.5.4-.4,2.7-1.7,3-2-.2.2-.4.4-.5.7-.5,1.2-.3,2.6.6,3.6.3.3.7.6,1.1.8h-.2C32.5,98.2-15.7,70.9,5,31.8c14.2-24.9,46.8-21.2,64.6-2.6,22,23.2,27.7,55.7,31.9,86,1.9,15.2,2.8,30.5,3.3,45.8h-.9Z"/>
      <path id="Path_4" class="st2" d="M92.9,162.9c-8.4-29.5-15.5-59.6-15.9-90.5-.6-26.5,7.6-59.8,35.4-70.2,21.4-7.8,44.4,6.6,47.7,29.4,2.6,29.3-23.8,52.1-45.3,67.6,1.4-1.2,1.5-3.2.3-4.6h0c-.2-.2-.4-.4-.7-.5.4.3,2.9.9,3.5,1,16.9,4.1,34.1,12.5,43.8,27.4l-.7.5c-10.4-11.3-24.6-17.4-39.1-20.4-3.2-.8-8.4-1.1-11.2-2.7-1.8-1.2-2.3-3.6-1.1-5.4.3-.5.7-.9,1.2-1.2,17.3-14.4,41.9-36.6,40.6-60.8-1.3-13.2-12.6-25.3-26.7-25.4-14.4-.7-27,10-33.6,22.1-13.8,26.7-10.4,59.4-6.5,88.5,2.3,15.1,5.5,30,9.1,44.9l-.9.2h0Z"/>
    </g>
  </g>
</svg>