<?xml version="1.0" encoding="UTF-8"?>
<svg id="Layer_1" xmlns="http://www.w3.org/2000/svg" xmlns:xlink="http://www.w3.org/1999/xlink" version="1.1" viewBox="0 0 360 163">
  <!-- Generator: Adobe Illustrator 29.1.0, SVG Export Plug-In . SVG Version: 2.1.0 Build 142)  -->
  <defs>
    <style>
      .st0 {
        fill: none;
      }

      .st1 {
        font-family: RockSalt-Regular, 'Rock Salt';
        font-size: 31.4px;
      }

      .st1, .st2 {
        isolation: isolate;
      }

      .st1, .st3 {
        fill: #eee1d4;
      }

      .st4 {
        clip-path: url(#clippath-1);
      }

      .st5 {
        clip-path: url(#clippath-2);
      }

      .st6 {
        fill: #84958f;
      }

      .st7 {
        clip-path: url(#clippath);
      }
    </style>
    <clipPath id="clippath">
      <rect class="st0" x="0" y="0" width="360" height="162.9"/>
    </clipPath>
    <clipPath id="clippath-1">
      <rect class="st0" x="147.9" y="73.6" width="212.1" height="57.6"/>
    </clipPath>
    <clipPath id="clippath-2">
      <rect class="st0" x="147.9" y="73.6" width="212.1" height="57.6"/>
    </clipPath>
  </defs>
  <g class="st7">
    <g id="Group_10">
      <g id="Group_9" class="st2">
        <g id="Group_8">
          <g class="st4">
            <g id="Group_7">
              <g id="Group_6" class="st2">
                <g id="Group_5">
                  <g class="st5">
                    <g id="Group_4">
                      <g id="aluca_Radu" class="st2">
                        <text class="st1" transform="translate(150.9 107)"><tspan x="0" y="0">aluca Radu</tspan></text>
                      </g>
                    </g>
                  </g>
                </g>
              </g>
            </g>
          </g>
        </g>
      </g>
      <path id="Path_3" class="st6" d="M103.9,161.1c-3.3-40.2-8.7-98.3-38.3-127.8-10-9.5-25.3-15.8-38.7-10.8-13.4,4.4-20.5,19.4-17.7,32.4,6.1,23.4,36.4,37.1,57.2,45.4,1.6.4,2.8,1.9,2.9,3.6,0,1-.3,1.9-.9,2.6-2.2,2.4-7.1,4.3-9.9,6-12.9,7.3-24.5,17.4-31,31.4l-.8-.3c4.7-17.2,18.5-30.4,33.4-39.5.4-.4,2.7-1.7,3-2-.2.2-.4.4-.5.7-.5,1.2-.3,2.6.6,3.6.3.3.7.6,1.1.8h-.2C32.5,98.2-15.7,70.9,5,31.8c14.2-24.9,46.8-21.2,64.6-2.6,22,23.2,27.7,55.7,31.9,86,1.9,15.2,2.8,30.5,3.3,45.8h-.9Z"/>
      <path id="Path_4" class="st3" d="M92.9,162.9c-8.4-29.5-15.5-59.6-15.9-90.5-.6-26.5,7.6-59.8,35.4-70.2,21.4-7.8,44.4,6.6,47.7,29.4,2.6,29.3-23.8,52.1-45.3,67.6,1.4-1.2,1.5-3.2.3-4.6,0,0,0,0,0,0,0,0,0,0,0,0-.2-.2-.4-.4-.7-.5.4.3,2.9.9,3.5,1,16.9,4.1,34.1,12.5,43.8,27.4l-.7.5c-10.4-11.3-24.6-17.4-39.1-20.4-3.2-.8-8.4-1.1-11.2-2.7-1.8-1.2-2.3-3.6-1.1-5.4.3-.5.7-.9,1.2-1.2,17.3-14.4,41.9-36.6,40.6-60.8-1.3-13.2-12.6-25.3-26.7-25.4-14.4-.7-27,10-33.6,22.1-13.8,26.7-10.4,59.4-6.5,88.5,2.3,15.1,5.5,30,9.1,44.9l-.9.2Z"/>
    </g>
  </g>
</svg>